{"title":"28 Days Later(2002)MPEG-4[DaScubaDude]","uid":15278699,"size":1267809102,"categoryP":"video","categoryS":"movies","magnet":"?xt=urn:btih:bd6040e7ffae738328d648a5bd02e6d6f7196a6b&amp;dn=28+Days+Later%282002%29MPEG-4%5BDaScubaDude%5D&amp;tr=udp%3A%2F%2Ftracker.leechers-paradise.org%3A6969&amp;tr=udp%3A%2F%2Fzer0day.ch%3A1337&amp;tr=udp%3A%2F%2Fopen.demonii.com%3A1337&amp;tr=udp%3A%2F%2Ftracker.coppersurfer.tk%3A6969&amp;tr=udp%3A%2F%2Fexodus.desync.com%3A6969","seeders":1,"leechers":1,"uploader":"dascuba","files":1,"time":1468326584,"description":"28 Days Later... (2002)\r\nR | 1h 53min | Drama, Horror, Sci-Fi | 27 June 2003 (USA)\r\nFour weeks after a mysterious, incurable virus spreads throughout the UK, a handful of survivors try to find sanctuary.\r\nDirector: Danny Boyle\r\nWriter: Alex Garland\r\nStars: Cillian Murphy, Naomie Harris, Christopher Eccleston |\r\n\r\nGeneral\r\nComplete name                            : 28DaysLaterT28DAYS_LATER_Title1.mp4\r\nFormat                                   : MPEG-4\r\nFormat profile                           : Base Media\r\nCodec ID                                 : isom (isom/iso2/avc1/mp41)\r\nFile size                                : 1.18 GiB\r\nDuration                                 : 1h 53mn\r\nOverall bit rate mode                    : Variable\r\nOverall bit rate                         : 1 496 Kbps\r\nMovie name                               : T28DAYS_LATER\r\nGenre                                    : Horror\r\nWriting application                      : Lavf54.6.100\r\n\r\nVideo\r\nID                                       : 1\r\nFormat                                   : AVC\r\nFormat/Info                              : Advanced Video Codec\r\nFormat profile                           :   \r\nFormat settings, CABAC                   : No\r\nFormat settings, ReFrames                : 6 frames\r\nFormat settings, GOP                     : M=1, N=60\r\nCodec ID                                 : avc1\r\nCodec ID/Info                            : Advanced Video Coding\r\nDuration                                 : 1h 53mn\r\nBit rate                                 : 1 197 Kbps\r\nWidth                                    : 720 pixels\r\nHeight                                   : 540 pixels\r\nDisplay aspect ratio                     : 4:3\r\nFrame rate mode                          : Constant\r\nFrame rate                               : 29.970 (30000/1001) fps\r\nColor space                              : YUV\r\nChroma subsampling                       : 4:2:0\r\nBit depth                                : 8 bits\r\nScan type                                : Progressive\r\nBits/(Pixel*Frame)                       : 0.103\r\nStream size                              : 968 MiB (80%)\r\n\r\nAudio\r\nID                                       : 2\r\nFormat                                   : AAC\r\nFormat/Info                              : Advanced Audio Codec\r\nFormat profile                           : LC\r\nCodec ID                                 : 40\r\nDuration                                 : 1h 53mn\r\nBit rate mode                            : Variable\r\nBit rate                                 : 288 Kbps\r\nMaximum bit rate                         : 337 Kbps\r\nChannel(s)                               : 2 channels\r\nChannel(s)_Original                      : 6 channels\r\nChannel positions                        : Front: L C R, Side: L R, LFE\r\nSampling rate                            : 44.1 KHz\r\nFrame rate                               : 43.066 fps (1024 spf)\r\nCompression mode                         : Lossy\r\nStream size                              : 236 MiB (20%)\r\nDefault                                  : Yes\r\nAlternate group                          : 1","torrent":{"xt":"urn:btih:bd6040e7ffae738328d648a5bd02e6d6f7196a6b","amp;dn":"28+Days+Later%282002%29MPEG-4%5BDaScubaDude%5D","amp;tr":["udp%3A%2F%2Ftracker.leechers-paradise.org%3A6969","udp%3A%2F%2Fzer0day.ch%3A1337","udp%3A%2F%2Fopen.demonii.com%3A1337","udp%3A%2F%2Ftracker.coppersurfer.tk%3A6969","udp%3A%2F%2Fexodus.desync.com%3A6969"],"infoHash":"bd6040e7ffae738328d648a5bd02e6d6f7196a6b","infoHashBuffer":{"type":"Buffer","data":[189,96,64,231,255,174,115,131,40,214,72,165,189,2,230,214,247,25,106,107]},"announce":[],"urlList":[]}}